HIERARCHY
ROOT Hips
{
	OFFSET 0.000000 100.481300 0.000000
	CHANNELS 6 Xposition Yposition Zposition Xrotation Yrotation Zrotation 
	JOINT Spine
	{
		OFFSET -0.279200 12.230698 -2.892100
		CHANNELS 3 Xrotation Yrotation Zrotation
		JOINT Spine1
		{
			OFFSET -0.232667 10.192268 -1.242267
			CHANNELS 3 Xrotation Yrotation Zrotation
			JOINT Spine1_split
			{
				OFFSET -0.232667 10.192268 -1.242267
				CHANNELS 3 Xrotation Yrotation Zrotation
				JOINT Spine2
				{
					OFFSET -0.232667 10.192268 -1.242267
					CHANNELS 3 Xrotation Yrotation Zrotation
					JOINT Neck
					{
						OFFSET -0.418800 17.814194 8.416900
						CHANNELS 3 Xrotation Yrotation Zrotation
						JOINT Head
						{
							OFFSET 0.000000 7.031097 3.806800
							CHANNELS 3 Xrotation Yrotation Zrotation
							JOINT HeadTop_End
							{
								OFFSET 0.000000 24.646606 12.978600
								CHANNELS 3 Xrotation Yrotation Zrotation
								End Site
								{
									OFFSET 0.000000 0.000000 0.000000
								}
							}
						}
					}
					JOINT LeftShoulder
					{
						OFFSET 8.476499 7.247704 -3.868750
						CHANNELS 3 Xrotation Yrotation Zrotation
						JOINT LeftShoulder_split
						{
							OFFSET 8.476499 7.247704 -3.868750
							CHANNELS 3 Xrotation Yrotation Zrotation
							JOINT LeftArm
							{
								OFFSET 9.308998 -2.777710 0.208600
								CHANNELS 3 Xrotation Yrotation Zrotation
								JOINT LeftForeArm
								{
									OFFSET 29.972298 0.000000 0.000000
									CHANNELS 3 Xrotation Yrotation Zrotation
									JOINT LeftHand
									{
										OFFSET 26.026505 0.000000 0.000000
										CHANNELS 3 Xrotation Yrotation Zrotation
										JOINT LeftHandThumb1
										{
											OFFSET 12.240501 -7.147949 9.207150
											CHANNELS 3 Xrotation Yrotation Zrotation
											JOINT LeftHandThumb2
											{
												OFFSET 4.138618 -2.389435 2.389433
												CHANNELS 3 Xrotation Yrotation Zrotation
												JOINT LeftHandThumb3
												{
													OFFSET 2.726913 -1.574387 1.574386
													CHANNELS 3 Xrotation Yrotation Zrotation
													JOINT LeftHandThumb4
													{
														OFFSET 3.941010 -2.275345 2.275342
														CHANNELS 3 Xrotation Yrotation Zrotation
														End Site
														{
															OFFSET 0.000000 0.000000 0.000000
														}
													}
												}
											}
										}
										JOINT LeftHandIndex1
										{
											OFFSET 24.424698 -1.985611 5.953459
											CHANNELS 3 Xrotation Yrotation Zrotation
											JOINT LeftHandIndex2
											{
												OFFSET 6.426697 0.000000 0.000000
												CHANNELS 3 Xrotation Yrotation Zrotation
												JOINT LeftHandIndex3
												{
													OFFSET 5.337898 0.000000 0.000000
													CHANNELS 3 Xrotation Yrotation Zrotation
													JOINT LeftHandIndex4
													{
														OFFSET 4.409401 0.000000 0.000000
														CHANNELS 3 Xrotation Yrotation Zrotation
														End Site
														{
															OFFSET 0.000000 0.000000 0.000000
														}
													}
												}
											}
										}
										JOINT LeftHandMiddle1
										{
											OFFSET 23.810104 0.000000 0.000000
											CHANNELS 3 Xrotation Yrotation Zrotation
											JOINT LeftHandMiddle2
											{
												OFFSET 7.176498 0.000000 0.000000
												CHANNELS 3 Xrotation Yrotation Zrotation
												JOINT LeftHandMiddle3
												{
													OFFSET 6.774902 0.000000 0.000000
													CHANNELS 3 Xrotation Yrotation Zrotation
													JOINT LeftHandMiddle4
													{
														OFFSET 5.403328 0.000000 0.000000
														CHANNELS 3 Xrotation Yrotation Zrotation
														End Site
														{
															OFFSET 0.000000 0.000000 0.000000
														}
													}
												}
											}
										}
										JOINT LeftHandRing1
										{
											OFFSET 22.908401 -0.839279 -6.020567
											CHANNELS 3 Xrotation Yrotation Zrotation
											JOINT LeftHandRing2
											{
												OFFSET 6.337502 0.000000 0.000000
												CHANNELS 3 Xrotation Yrotation Zrotation
												JOINT LeftHandRing3
												{
													OFFSET 5.779297 0.000000 0.000000
													CHANNELS 3 Xrotation Yrotation Zrotation
													JOINT LeftHandRing4
													{
														OFFSET 4.965698 0.000000 0.000000
														CHANNELS 3 Xrotation Yrotation Zrotation
														End Site
														{
															OFFSET 0.000000 0.000000 0.000000
														}
													}
												}
											}
										}
										JOINT LeftHandPinky1
										{
											OFFSET 20.037003 -1.530319 -10.950146
											CHANNELS 3 Xrotation Yrotation Zrotation
											JOINT LeftHandPinky2
											{
												OFFSET 5.254700 0.000000 0.000000
												CHANNELS 3 Xrotation Yrotation Zrotation
												JOINT LeftHandPinky3
												{
													OFFSET 4.810204 0.000000 0.000000
													CHANNELS 3 Xrotation Yrotation Zrotation
													JOINT LeftHandPinky4
													{
														OFFSET 3.647202 0.000000 0.000000
														CHANNELS 3 Xrotation Yrotation Zrotation
														End Site
														{
															OFFSET 0.000000 0.000000 0.000000
														}
													}
												}
											}
										}
									}
								}
							}
						}
					}
					JOINT RightShoulder
					{
						OFFSET -7.570500 7.247704 -3.868750
						CHANNELS 3 Xrotation Yrotation Zrotation
						JOINT RightShoulder_split
						{
							OFFSET -7.570500 7.247704 -3.868750
							CHANNELS 3 Xrotation Yrotation Zrotation
							JOINT RightArm
							{
								OFFSET -9.308998 -2.777710 0.208500
								CHANNELS 3 Xrotation Yrotation Zrotation
								JOINT RightForeArm
								{
									OFFSET -29.972300 0.000000 0.000000
									CHANNELS 3 Xrotation Yrotation Zrotation
									JOINT RightHand
									{
										OFFSET -26.026505 0.000000 0.000000
										CHANNELS 3 Xrotation Yrotation Zrotation
										JOINT RightHandThumb1
										{
											OFFSET -12.240601 -7.148026 9.207092
											CHANNELS 3 Xrotation Yrotation Zrotation
											JOINT RightHandThumb2
											{
												OFFSET -4.138618 -2.389435 2.389433
												CHANNELS 3 Xrotation Yrotation Zrotation
												JOINT RightHandThumb3
												{
													OFFSET -2.726974 -1.574417 1.574421
													CHANNELS 3 Xrotation Yrotation Zrotation
													JOINT RightHandThumb4
													{
														OFFSET -3.941010 -2.275345 2.275343
														CHANNELS 3 Xrotation Yrotation Zrotation
														End Site
														{
															OFFSET 0.000000 0.000000 0.000000
														}
													}
												}
											}
										}
										JOINT RightHandIndex1
										{
											OFFSET -24.424698 -1.985657 5.953444
											CHANNELS 3 Xrotation Yrotation Zrotation
											JOINT RightHandIndex2
											{
												OFFSET -6.426697 0.000000 0.000000
												CHANNELS 3 Xrotation Yrotation Zrotation
												JOINT RightHandIndex3
												{
													OFFSET -5.337898 0.000000 0.000000
													CHANNELS 3 Xrotation Yrotation Zrotation
													JOINT RightHandIndex4
													{
														OFFSET -4.409401 0.000000 0.000000
														CHANNELS 3 Xrotation Yrotation Zrotation
														End Site
														{
															OFFSET 0.000000 0.000000 0.000000
														}
													}
												}
											}
										}
										JOINT RightHandMiddle1
										{
											OFFSET -23.810097 0.000000 0.000000
											CHANNELS 3 Xrotation Yrotation Zrotation
											JOINT RightHandMiddle2
											{
												OFFSET -7.176498 0.000000 0.000000
												CHANNELS 3 Xrotation Yrotation Zrotation
												JOINT RightHandMiddle3
												{
													OFFSET -6.774902 0.000000 0.000000
													CHANNELS 3 Xrotation Yrotation Zrotation
													JOINT RightHandMiddle4
													{
														OFFSET -5.403328 0.000000 0.000000
														CHANNELS 3 Xrotation Yrotation Zrotation
														End Site
														{
															OFFSET 0.000000 0.000000 0.000000
														}
													}
												}
											}
										}
										JOINT RightHandRing1
										{
											OFFSET -22.908302 -0.839325 -6.020576
											CHANNELS 3 Xrotation Yrotation Zrotation
											JOINT RightHandRing2
											{
												OFFSET -6.337502 0.000000 0.000000
												CHANNELS 3 Xrotation Yrotation Zrotation
												JOINT RightHandRing3
												{
													OFFSET -5.779297 0.000000 0.000000
													CHANNELS 3 Xrotation Yrotation Zrotation
													JOINT RightHandRing4
													{
														OFFSET -4.965698 0.000000 0.000000
														CHANNELS 3 Xrotation Yrotation Zrotation
														End Site
														{
															OFFSET 0.000000 0.000000 0.000000
														}
													}
												}
											}
										}
										JOINT RightHandPinky1
										{
											OFFSET -20.037003 -1.530334 -10.950259
											CHANNELS 3 Xrotation Yrotation Zrotation
											JOINT RightHandPinky2
											{
												OFFSET -5.254700 0.000000 0.000000
												CHANNELS 3 Xrotation Yrotation Zrotation
												JOINT RightHandPinky3
												{
													OFFSET -4.810204 0.000000 0.000000
													CHANNELS 3 Xrotation Yrotation Zrotation
													JOINT RightHandPinky4
													{
														OFFSET -3.647202 0.000000 0.000000
														CHANNELS 3 Xrotation Yrotation Zrotation
														End Site
														{
															OFFSET 0.000000 0.000000 0.000000
														}
													}
												}
											}
										}
									}
								}
							}
						}
					}
				}
			}
		}
	}
	JOINT LeftUpLeg
	{
		OFFSET 15.427100 -6.655098 0.678600
		CHANNELS 3 Xrotation Yrotation Zrotation
		JOINT LeftLeg
		{
			OFFSET 4.081073 -39.591068 13.024000
			CHANNELS 3 Xrotation Yrotation Zrotation
			JOINT LeftFoot
			{
				OFFSET -4.081074 -37.707932 -15.979700
				CHANNELS 3 Xrotation Yrotation Zrotation
				JOINT LeftToeBase
				{
					OFFSET 5.346399 -15.068900 20.645000
					CHANNELS 3 Xrotation Yrotation Zrotation
					JOINT LeftToe_End
					{
						OFFSET 2.754700 0.931300 11.300900
						CHANNELS 3 Xrotation Yrotation Zrotation
						End Site
						{
							OFFSET 0.000000 0.000000 0.000000
						}
					}
				}
			}
		}
	}
	JOINT RightUpLeg
	{
		OFFSET -15.569500 -6.655098 0.678600
		CHANNELS 3 Xrotation Yrotation Zrotation
		JOINT RightLeg
		{
			OFFSET -4.081825 -39.591045 13.023800
			CHANNELS 3 Xrotation Yrotation Zrotation
			JOINT RightFoot
			{
				OFFSET 4.081824 -37.707954 -15.979600
				CHANNELS 3 Xrotation Yrotation Zrotation
				JOINT RightToeBase
				{
					OFFSET -5.346400 -15.068900 20.645000
					CHANNELS 3 Xrotation Yrotation Zrotation
					JOINT RightToe_End
					{
						OFFSET -2.754700 0.931300 11.300900
						CHANNELS 3 Xrotation Yrotation Zrotation
						End Site
						{
							OFFSET 0.000000 0.000000 0.000000
						}
					}
				}
			}
		}
	}
}
MOTION
Frames: 5
Frame Time: 0.016667
0.012944 88.252625 -3.084297 -24.509908 -2.335542 -1.914572 11.213224 -4.820284 -0.424450 3.545655 -2.400649 -0.151373 0.000000 0.000000 0.000000 3.557024 -2.388379 -0.108336 1.551789 0.634303 -1.308391 -6.938529 0.762142 3.865454 -0.000001 -0.000001 0.000000 0.445071 -15.488175 -11.025447 0.000000 0.000000 0.000000 -20.285392 3.054797 -36.773551 0.000014 -67.201917 0.000041 -41.639978 -11.471776 -7.743323 -22.783320 -14.798006 12.273498 3.104721 10.435606 14.815848 3.249524 44.532652 6.783415 0.000001 0.000000 0.000001 1.968593 -2.875775 26.071488 3.265026 5.250336 -63.730405 1.613334 4.038122 -43.542435 0.000000 -0.000000 -0.000000 -0.918337 3.905216 20.820664 2.974882 5.097483 -60.513809 3.266991 5.251298 -63.751811 -0.000001 0.000000 0.000001 -6.190618 13.399333 27.815703 3.764254 5.467493 -69.071948 1.278686 3.654637 -38.556544 -0.000000 0.000000 -0.000000 -10.204770 21.361512 28.797809 0.278403 1.786143 -17.716440 1.528184 3.946793 -42.319330 -0.000000 0.000000 -0.000003 0.064831 14.691500 14.953775 0.000000 0.000000 0.000000 -12.069991 -6.923744 61.446649 -0.000002 39.415441 -0.000001 -1.892000 -4.118465 24.314835 -20.073132 16.089470 -24.921335 8.794359 -40.952749 -1.386064 -0.155080 -28.868781 -23.120272 0.000002 0.000002 -0.000002 1.063119 -5.182538 38.505523 3.100498 -4.389839 70.453032 0.158027 1.204120 -14.952701 0.000002 0.000001 -0.000000 2.946400 -6.593246 70.499874 0.642391 -2.362177 30.423148 0.145581 1.156528 -14.348499 -0.000002 -0.000000 0.000001 5.948312 -7.199731 80.598568 0.322669 -1.704975 21.432113 0.002681 -0.158673 1.948211 0.000003 -0.000000 0.000001 1.932467 -22.479097 97.263301 1.111363 -3.021278 40.384006 3.356370 -4.472206 73.763953 0.000000 0.000000 -0.000001 7.605796 20.044925 8.073823 32.263252 5.213170 -9.771462 -19.892806 29.991863 8.129940 0.704956 0.019732 -0.826678 -0.000000 0.000004 -0.000000 23.655578 -14.728731 -1.988912 29.238281 -8.320926 0.977758 -24.326023 -30.400851 2.086194 0.885155 -0.003202 0.646003 -0.000000 0.000000 -0.000000 
-0.307803 88.074081 -2.828510 -24.528218 -3.219529 -2.500852 11.226751 -4.875765 -0.266159 3.545656 -2.400649 -0.151373 0.000000 0.000000 0.000000 3.557024 -2.388378 -0.108336 1.569038 0.632567 -1.281187 -6.886420 0.740098 3.939075 -0.000000 -0.000001 -0.000000 0.453286 -15.502117 -10.972479 0.000000 0.000000 0.000000 -20.293300 3.094329 -36.833622 -0.000000 -67.199301 0.000012 -41.623695 -11.480583 -7.750264 -22.783322 -14.798006 12.273494 3.108330 10.435733 14.812918 3.243434 44.532051 6.788116 0.000001 0.000000 -0.000000 1.972013 -2.886993 26.060462 3.263317 5.249498 -63.711697 1.613333 4.038121 -43.542435 -0.000001 0.000000 -0.000001 -0.911526 3.888550 20.812153 2.975755 5.097967 -60.523583 3.268532 5.252060 -63.768736 -0.000001 -0.000000 0.000001 -6.204499 13.442056 27.794067 3.753697 5.463444 -68.961155 1.278687 3.654638 -38.556548 0.000000 -0.000000 -0.000000 -10.221027 21.393293 28.797334 0.277964 1.784788 -17.702286 1.529404 3.948144 -42.337191 -0.000001 0.000002 -0.000006 0.059576 14.649709 15.003832 0.000000 0.000000 0.000000 -12.024880 -6.807490 61.377617 -0.000004 39.437020 0.000015 -1.973401 -4.141929 24.291498 -20.073132 16.089475 -24.921333 8.794362 -40.952749 -1.386064 -0.157780 -28.865858 -23.124524 -0.000000 0.000001 0.000002 1.073336 -5.197502 38.626113 3.094961 -4.387889 70.380776 0.158104 1.204432 -14.956566 -0.000000 -0.000000 0.000000 2.960345 -6.598239 70.519736 0.642408 -2.362205 30.423565 0.145891 1.157739 -14.363857 -0.000003 -0.000000 0.000000 5.942372 -7.197740 80.626709 0.322934 -1.705691 21.441504 0.002687 -0.158673 1.948213 -0.000001 0.000000 0.000001 1.935727 -22.481199 97.290232 1.111358 -3.021278 40.384006 3.356369 -4.472202 73.763953 0.000000 0.000001 -0.000003 6.603447 20.406090 9.280707 34.048052 5.287109 -9.730474 -19.202498 30.090702 7.391217 0.636796 0.039341 -1.492192 -0.000000 -0.000004 0.000000 23.669985 -14.389361 -1.698529 29.468899 -8.106739 1.086212 -24.800642 -29.867673 1.720076 0.904605 -0.003355 0.659950 0.000000 -0.000000 0.000000 
-0.598687 87.875702 -2.588150 -24.552312 -4.101923 -3.105949 11.241885 -4.935900 -0.091250 3.545656 -2.400650 -0.151373 0.000000 0.000000 0.000000 3.557025 -2.388381 -0.108336 1.594335 0.627989 -1.252939 -6.802726 0.692378 4.007736 -0.000001 -0.000000 -0.000000 0.460826 -15.508026 -10.923494 0.000000 0.000000 0.000000 -20.284323 3.109533 -36.878930 0.000029 -67.192894 0.000042 -41.627032 -11.498701 -7.746701 -22.783320 -14.798011 12.273496 3.113752 10.435884 14.808478 3.241950 44.531911 6.788989 -0.000002 0.000001 -0.000001 1.969737 -2.895169 26.045169 3.259418 5.247582 -63.669056 1.613333 4.038121 -43.542435 -0.000001 -0.000000 0.000000 -0.905913 3.873787 20.810157 2.976640 5.098478 -60.533624 3.269985 5.252778 -63.784541 -0.000000 -0.000001 -0.000001 -6.207487 13.460001 27.775152 3.749426 5.461803 -68.916240 1.278686 3.654637 -38.556544 -0.000001 -0.000000 -0.000001 -10.231282 21.412790 28.801429 0.278414 1.786175 -17.716703 1.530159 3.948979 -42.348300 -0.000000 0.000001 -0.000002 0.056285 14.633617 15.032352 0.000000 0.000000 0.000000 -11.965737 -6.692805 61.317163 -0.000020 39.454072 0.000018 -2.087392 -4.155324 24.254582 -20.073132 16.089467 -24.921335 8.794359 -40.952749 -1.386065 -0.175267 -28.846863 -23.151869 -0.000004 -0.000001 -0.000001 1.083632 -5.208383 38.767932 3.091852 -4.386768 70.339979 0.158050 1.204202 -14.953714 0.000002 -0.000000 0.000000 2.965372 -6.600089 70.543601 0.642267 -2.361961 30.420109 0.145976 1.158085 -14.368225 -0.000000 0.000000 -0.000000 5.939523 -7.195795 80.668653 0.323131 -1.706109 21.447076 0.002684 -0.158674 1.948214 0.000000 0.000000 -0.000002 1.933398 -22.482317 97.298251 1.111361 -3.021279 40.384006 3.356365 -4.472200 73.763953 0.000001 0.000003 -0.000001 5.385431 20.723515 10.572556 36.065096 5.339383 -9.683778 -18.410642 30.154718 6.960672 0.945477 0.067452 -2.525803 -0.000000 0.000003 -0.000000 23.649173 -14.056636 -1.432956 29.751771 -7.938318 1.186203 -25.244680 -29.278357 1.427545 0.904366 -0.003375 0.659829 -0.000000 -0.000000 -0.000000 
-0.921649 87.664055 -2.312237 -24.582372 -4.986624 -3.723185 11.258006 -4.998040 0.092781 3.545655 -2.400650 -0.151373 0.000000 0.000000 0.000000 3.557026 -2.388377 -0.108335 1.621907 0.619882 -1.221550 -6.707822 0.616423 4.081620 -0.000001 0.000000 0.000000 0.467433 -15.512268 -10.880575 0.000000 0.000000 0.000000 -20.273859 3.119682 -36.916920 -0.000054 -67.186658 -0.000046 -41.632906 -11.516115 -7.742021 -22.783320 -14.798008 12.273496 3.121077 10.436152 14.802480 3.239633 44.531672 6.790416 0.000001 -0.000003 -0.000001 1.966050 -2.898957 26.024730 3.255075 5.245434 -63.621505 1.613333 4.038122 -43.542435 -0.000001 0.000000 -0.000001 -0.901177 3.860900 20.811103 2.977375 5.098902 -60.541950 3.270987 5.253262 -63.795456 -0.000000 -0.000000 0.000000 -6.204286 13.462545 27.760010 3.748888 5.461601 -68.910509 1.278686 3.654637 -38.556548 0.000000 0.000000 -0.000001 -10.237952 21.423498 28.810093 0.279211 1.788716 -17.742613 1.530701 3.949549 -42.356035 0.000000 0.000001 -0.000001 0.054409 14.630950 15.046422 0.000000 0.000000 0.000000 -11.904869 -6.587384 61.267357 0.000012 39.465721 -0.000013 -2.208376 -4.161596 24.213827 -20.073132 16.089470 -24.921339 8.794363 -40.952742 -1.386061 -0.196620 -28.823593 -23.185369 -0.000001 0.000002 -0.000002 1.092566 -5.215362 38.900338 3.089321 -4.385872 70.307126 0.157881 1.203595 -14.945974 0.000002 0.000000 0.000001 2.965382 -6.600172 70.564406 0.642072 -2.361646 30.415573 0.145959 1.157999 -14.367101 -0.000002 -0.000000 0.000000 5.938353 -7.194011 80.713711 0.323237 -1.706378 21.450626 0.002677 -0.158673 1.948213 0.000003 0.000000 -0.000001 1.923025 -22.482447 97.283600 1.111362 -3.021278 40.384002 3.356367 -4.472203 73.763967 0.000002 0.000002 -0.000002 4.022447 20.958837 11.971105 38.213334 5.345780 -9.611137 -17.512598 30.190918 6.786937 1.364654 0.105420 -3.689074 0.000000 0.000002 0.000000 23.672795 -13.737314 -1.137940 30.032192 -7.800917 1.269982 -25.711520 -28.649263 1.164600 0.887746 -0.003216 0.647813 0.000000 -0.000001 0.000000 
-1.209957 87.439156 -2.047142 -24.619697 -5.890818 -4.326838 11.272507 -5.050244 0.256946 3.545656 -2.400649 -0.151373 0.000000 0.000000 0.000000 3.557025 -2.388378 -0.108335 1.648779 0.606484 -1.184733 -6.610728 0.500817 4.168910 -0.000001 0.000001 0.000000 0.472353 -15.517850 -10.848855 0.000000 0.000000 0.000000 -20.272654 3.135284 -36.949230 0.000030 -67.183503 0.000017 -41.629839 -11.525104 -7.742585 -22.783320 -14.798010 12.273498 3.130812 10.436453 14.794533 3.231163 44.530839 6.796600 -0.000001 0.000003 0.000001 1.963856 -2.895331 25.998260 3.251303 5.243589 -63.580346 1.613334 4.038123 -43.542435 -0.000000 0.000000 0.000001 -0.897658 3.850893 20.813555 2.977798 5.099126 -60.546588 3.271346 5.253432 -63.799301 -0.000000 -0.000001 -0.000005 -6.195216 13.448993 27.750732 3.752103 5.462821 -68.944210 1.278685 3.654637 -38.556544 -0.000000 -0.000000 0.000000 -10.241669 21.423710 28.826103 0.280230 1.791843 -17.774876 1.531022 3.949917 -42.360724 -0.000001 0.000001 -0.000002 0.054214 14.638965 15.044535 0.000000 0.000000 0.000000 -11.849487 -6.498834 61.233971 -0.000002 39.468859 -0.000004 -2.323285 -4.159763 24.173575 -20.073132 16.089472 -24.921337 8.794358 -40.952749 -1.386068 -0.217253 -28.801087 -23.217765 0.000001 0.000001 -0.000000 1.098928 -5.217621 39.002682 3.087530 -4.385232 70.283432 0.157608 1.202558 -14.932796 0.000001 -0.000000 0.000001 2.961680 -6.598930 70.576167 0.641935 -2.361374 30.411759 0.145878 1.157675 -14.363055 -0.000002 0.000000 0.000000 5.939030 -7.192695 80.753764 0.323244 -1.706418 21.451165 0.002682 -0.158673 1.948210 -0.000001 -0.000000 -0.000000 1.900757 -22.481262 97.237298 1.111355 -3.021278 40.384002 3.356366 -4.472203 73.763953 -0.000001 0.000002 0.000000 2.577469 21.099373 13.339610 40.333329 5.302195 -9.480380 -16.541084 30.190351 6.865851 1.444083 0.164695 -4.600677 0.000000 0.000001 -0.000000 23.644537 -13.424762 -0.906548 30.371942 -7.672747 1.337226 -26.158409 -27.995998 0.961700 0.860864 -0.003055 0.628335 0.000000 0.000004 -0.000000 
